<svg id="Шар_1" data-name="Шар 1" xmlns="http://www.w3.org/2000/svg" viewBox="0 0 308.56 72.98"><defs><style>.cls-1{font-size:14px;font-family:SegoeScript, Segoe Script;}.cls-1,.cls-2{fill:#fff;}</style>
</defs>
<text class="cls-1" transform="translate(52.33 20.92)">Нажми на мене!</text>
<path class="cls-2" d="M267.77,281.29a113.65,113.65,0,0,1-12,8.91c-4,2.56-8.36,5.52-13,6.59-5.17,1.18-9.3-1.93-13.33-4.7l-13-8.91-14.65-10c-1.06-.73-2.06,1-1,1.73l27.68,18.93c4,2.76,8.18,5.79,13.33,5.16,4.82-.58,9.27-3.46,13.32-6a118.46,118.46,0,0,0,14.18-10.31c1-.84-.44-2.24-1.42-1.42Z" transform="translate(-199.67 -261.08)"/>
<path class="cls-2" d="M218.12,278q-5.48-1.92-10.88-4.05c-1.64-.64-3.32-1.53-5-2a2,2,0,0,0-2.54,2.06c-.22,6.69,2.72,13.24,6.2,18.76.68,1.09,2.41.09,1.72-1-3.1-4.93-5.59-10.42-5.89-16.33l0-.85V274c0-.23,0-.28,0-.13.12-.07.87.36,1,.4l1,.41q2.37,1,4.75,1.88,4.56,1.77,9.17,3.38c1.21.43,1.74-1.5.53-1.93Z" transform="translate(-199.67 -261.08)"/>
<path class="cls-2" d="M507.26,334.06a1,1,0,0,0,0-2,1,1,0,0,0,0,2Z" transform="translate(-199.67 -261.08)"/></svg>